<svg xmlns="http://www.w3.org/2000/svg" version="1.1" xmlns:xlink="http://www.w3.org/1999/xlink" xmlns:svgjs="http://svgjs.com/svgjs" width="1440" height="560" preserveAspectRatio="none" viewBox="0 0 1440 560">
    <g mask="url(&quot;#SvgjsMask2020&quot;)" fill="none">
        <rect width="1440" height="560" x="0" y="0" fill="url(#SvgjsRadialGradient2021)"></rect>
        <path d="M1352.9 350.78L1352.9 354.51L1370.92 354.51L1370.92 350.78zM1364.32 352.65 a6.6 6.6 0 1 0 13.2 0 a6.6 6.6 0 1 0 -13.2 0zM1348.2 378.16L1346.77 381.6L1377.74 394.43L1379.17 390.99zM1371.85 392.71 a6.6 6.6 0 1 0 13.2 0 a6.6 6.6 0 1 0 -13.2 0zM1333.38 401.65L1330.74 404.29L1341.01 414.56L1343.65 411.93zM1335.73 413.25 a6.6 6.6 0 1 0 13.2 0 a6.6 6.6 0 1 0 -13.2 0zM1310.69 417.69L1307.25 419.11L1314.56 436.78L1318.01 435.35zM1309.69 436.06 a6.6 6.6 0 1 0 13.2 0 a6.6 6.6 0 1 0 -13.2 0zM1283.6 423.82L1279.87 423.82L1279.87 448.67L1283.6 448.67zM1275.13 448.67 a6.6 6.6 0 1 0 13.2 0 a6.6 6.6 0 1 0 -13.2 0zM1256.22 419.11L1252.78 417.69L1239.39 450.01L1242.83 451.44zM1234.51 450.73 a6.6 6.6 0 1 0 13.2 0 a6.6 6.6 0 1 0 -13.2 0zM1232.73 404.29L1230.09 401.65L1222.3 409.45L1224.93 412.08zM1217.02 410.76 a6.6 6.6 0 1 0 13.2 0 a6.6 6.6 0 1 0 -13.2 0zM1216.69 381.6L1215.27 378.16L1195.93 386.17L1197.36 389.61zM1190.04 387.89 a6.6 6.6 0 1 0 13.2 0 a6.6 6.6 0 1 0 -13.2 0zM1210.56 354.51L1210.56 350.78L1178.25 350.78L1178.25 354.51zM1171.65 352.65 a6.6 6.6 0 1 0 13.2 0 a6.6 6.6 0 1 0 -13.2 0zM1215.27 327.13L1216.69 323.69L1191.39 313.21L1189.96 316.65zM1184.08 314.93 a6.6 6.6 0 1 0 13.2 0 a6.6 6.6 0 1 0 -13.2 0zM1230.09 303.64L1232.73 301.01L1210.33 278.6L1207.69 281.24zM1202.41 279.92 a6.6 6.6 0 1 0 13.2 0 a6.6 6.6 0 1 0 -13.2 0zM1252.78 287.61L1256.22 286.18L1249.33 269.54L1245.88 270.97zM1241.01 270.26 a6.6 6.6 0 1 0 13.2 0 a6.6 6.6 0 1 0 -13.2 0zM1279.87 281.48L1283.6 281.48L1283.6 272.58L1279.87 272.58zM1275.13 272.58 a6.6 6.6 0 1 0 13.2 0 a6.6 6.6 0 1 0 -13.2 0zM1307.25 286.18L1310.69 287.61L1319.06 267.39L1315.62 265.97zM1310.74 266.68 a6.6 6.6 0 1 0 13.2 0 a6.6 6.6 0 1 0 -13.2 0zM1330.74 301.01L1333.38 303.64L1346.64 290.38L1344.01 287.74zM1338.72 289.06 a6.6 6.6 0 1 0 13.2 0 a6.6 6.6 0 1 0 -13.2 0zM1346.77 323.69L1348.2 327.13L1357.08 323.46L1355.65 320.01zM1349.76 321.73 a6.6 6.6 0 1 0 13.2 0 a6.6 6.6 0 1 0 -13.2 0zM1210.54 352.65 a71.19 71.19 0 1 0 142.38 0 a71.19 71.19 0 1 0 -142.38 0z" fill="#488fdb"></path>
        <path d="M1304.44 285.17 A70.1936 70.1936 0 0 1 1328.93 405.95M1328.93 405.95 A142.3872 142.3872 0 0 0 1304.44 285.17" fill="#2672c3" fill-rule="nonzero"></path>
        <path d="M1272.39 344.75 a14.24 14.24 0 1 0 28.48 0 a14.24 14.24 0 1 0 -28.48 0zM1249.05 300.77 a14.24 14.24 0 1 0 28.48 0 a14.24 14.24 0 1 0 -28.48 0zM1272.17 390.68 a14.24 14.24 0 1 0 28.48 0 a14.24 14.24 0 1 0 -28.48 0zM1231.48 400.55 a5.7 5.7 0 1 0 11.4 0 a5.7 5.7 0 1 0 -11.4 0zM1333.72 322.45 a5.7 5.7 0 1 0 11.4 0 a5.7 5.7 0 1 0 -11.4 0zM1332.63 392.29 a3.56 3.56 0 1 0 7.12 0 a3.56 3.56 0 1 0 -7.12 0zM1211.35 346.99 a8.54 8.54 0 1 0 17.08 0 a8.54 8.54 0 1 0 -17.08 0zM1228.01 311.7 a4.27 4.27 0 1 0 8.54 0 a4.27 4.27 0 1 0 -8.54 0zM1308.56 365.81 a5.7 5.7 0 1 0 11.4 0 a5.7 5.7 0 1 0 -11.4 0zM1315.03 311.05 a3.56 3.56 0 1 0 7.12 0 a3.56 3.56 0 1 0 -7.12 0z" fill="#2672c3" fill-rule="nonzero"></path>
        <path d="M602.64 302.58L602.64 306.31L628.1 306.31L628.1 302.58zM621.5 304.44 a6.6 6.6 0 1 0 13.2 0 a6.6 6.6 0 1 0 -13.2 0zM597.94 329.96L596.51 333.4L626.46 345.81L627.89 342.36zM620.57 344.08 a6.6 6.6 0 1 0 13.2 0 a6.6 6.6 0 1 0 -13.2 0zM583.11 353.45L580.48 356.08L604.82 380.42L607.45 377.79zM599.53 379.1 a6.6 6.6 0 1 0 13.2 0 a6.6 6.6 0 1 0 -13.2 0zM560.43 369.48L556.98 370.91L563.04 385.53L566.49 384.11zM558.16 384.82 a6.6 6.6 0 1 0 13.2 0 a6.6 6.6 0 1 0 -13.2 0zM533.33 375.61L529.61 375.61L529.61 393.26L533.33 393.26zM524.87 393.26 a6.6 6.6 0 1 0 13.2 0 a6.6 6.6 0 1 0 -13.2 0zM505.96 370.91L502.51 369.48L489.35 401.27L492.79 402.7zM484.47 401.98 a6.6 6.6 0 1 0 13.2 0 a6.6 6.6 0 1 0 -13.2 0zM482.46 356.08L479.83 353.45L457.84 375.43L460.48 378.07zM452.56 376.75 a6.6 6.6 0 1 0 13.2 0 a6.6 6.6 0 1 0 -13.2 0zM466.43 333.4L465.01 329.96L439.02 340.72L440.44 344.16zM433.13 342.44 a6.6 6.6 0 1 0 13.2 0 a6.6 6.6 0 1 0 -13.2 0zM460.3 306.31L460.3 302.58L440.87 302.58L440.87 306.31zM434.27 304.44 a6.6 6.6 0 1 0 13.2 0 a6.6 6.6 0 1 0 -13.2 0zM465.01 278.93L466.43 275.48L449.51 268.47L448.08 271.92zM442.19 270.2 a6.6 6.6 0 1 0 13.2 0 a6.6 6.6 0 1 0 -13.2 0zM479.83 255.44L482.46 252.8L465.96 236.3L463.32 238.93zM458.04 237.61 a6.6 6.6 0 1 0 13.2 0 a6.6 6.6 0 1 0 -13.2 0zM502.51 239.4L505.96 237.98L493.53 207.97L490.08 209.4zM485.21 208.68 a6.6 6.6 0 1 0 13.2 0 a6.6 6.6 0 1 0 -13.2 0zM529.61 233.27L533.33 233.27L533.33 217.34L529.61 217.34zM524.87 217.34 a6.6 6.6 0 1 0 13.2 0 a6.6 6.6 0 1 0 -13.2 0zM556.98 237.98L560.43 239.4L569.68 217.06L566.24 215.64zM561.36 216.35 a6.6 6.6 0 1 0 13.2 0 a6.6 6.6 0 1 0 -13.2 0zM580.48 252.8L583.11 255.44L592.54 246.01L589.9 243.37zM584.62 244.69 a6.6 6.6 0 1 0 13.2 0 a6.6 6.6 0 1 0 -13.2 0zM596.51 275.48L597.94 278.93L629.06 266.04L627.63 262.59zM621.75 264.31 a6.6 6.6 0 1 0 13.2 0 a6.6 6.6 0 1 0 -13.2 0zM460.28 304.44 a71.19 71.19 0 1 0 142.38 0 a71.19 71.19 0 1 0 -142.38 0z" fill="#488fdb"></path>
        <path d="M463.53 283.16 A70.1936 70.1936 0 0 1 583.77 256.13M583.77 256.13 A142.3872 142.3872 0 0 0 463.53 283.16" fill="#2672c3" fill-rule="nonzero"></path>
        <path d="M588.28 301.65 a7.12 7.12 0 1 0 14.24 0 a7.12 7.12 0 1 0 -14.24 0zM556.13 276.31 a14.24 14.24 0 1 0 28.48 0 a14.24 14.24 0 1 0 -28.48 0zM461.88 293.49 a14.24 14.24 0 1 0 28.48 0 a14.24 14.24 0 1 0 -28.48 0zM512.46 243.32 a8.54 8.54 0 1 0 17.08 0 a8.54 8.54 0 1 0 -17.08 0zM537.82 320.36 a14.24 14.24 0 1 0 28.48 0 a14.24 14.24 0 1 0 -28.48 0zM551.86 364.43 a5.7 5.7 0 1 0 11.4 0 a5.7 5.7 0 1 0 -11.4 0zM500.4 310.69 a7.12 7.12 0 1 0 14.24 0 a7.12 7.12 0 1 0 -14.24 0zM579.1 336.84 a7.12 7.12 0 1 0 14.24 0 a7.12 7.12 0 1 0 -14.24 0zM485.54 356.74 a2.85 2.85 0 1 0 5.7 0 a2.85 2.85 0 1 0 -5.7 0zM504.79 349.23 a12.81 12.81 0 1 0 25.62 0 a12.81 12.81 0 1 0 -25.62 0z" fill="#2672c3" fill-rule="nonzero"></path>
        <path d="M1126.01 167.87L1126.01 170.2L1139.25 170.2L1139.25 167.87zM1135.12 169.04 a4.13 4.13 0 1 0 8.26 0 a4.13 4.13 0 1 0 -8.26 0zM1123.07 184.98L1122.17 187.13L1127.66 189.41L1128.55 187.26zM1123.98 188.33 a4.13 4.13 0 1 0 8.26 0 a4.13 4.13 0 1 0 -8.26 0zM1113.8 199.67L1112.15 201.31L1121.15 210.31L1122.8 208.66zM1117.84 209.48 a4.13 4.13 0 1 0 8.26 0 a4.13 4.13 0 1 0 -8.26 0zM1099.62 209.69L1097.47 210.58L1101.27 219.75L1103.42 218.86zM1098.22 219.31 a4.13 4.13 0 1 0 8.26 0 a4.13 4.13 0 1 0 -8.26 0zM1082.69 213.52L1080.36 213.52L1080.36 220.35L1082.69 220.35zM1077.4 220.35 a4.13 4.13 0 1 0 8.26 0 a4.13 4.13 0 1 0 -8.26 0zM1065.58 210.58L1063.43 209.69L1059.24 219.79L1061.39 220.68zM1056.19 220.24 a4.13 4.13 0 1 0 8.26 0 a4.13 4.13 0 1 0 -8.26 0zM1050.9 201.31L1049.25 199.67L1038.03 210.89L1039.67 212.53zM1034.72 211.71 a4.13 4.13 0 1 0 8.26 0 a4.13 4.13 0 1 0 -8.26 0zM1040.88 187.13L1039.98 184.98L1030.82 188.78L1031.71 190.93zM1027.14 189.85 a4.13 4.13 0 1 0 8.26 0 a4.13 4.13 0 1 0 -8.26 0zM1037.04 170.2L1037.04 167.87L1024.98 167.87L1024.98 170.2zM1020.85 169.04 a4.13 4.13 0 1 0 8.26 0 a4.13 4.13 0 1 0 -8.26 0zM1039.98 153.09L1040.88 150.94L1035.09 148.54L1034.2 150.69zM1030.52 149.62 a4.13 4.13 0 1 0 8.26 0 a4.13 4.13 0 1 0 -8.26 0zM1049.25 138.41L1050.9 136.76L1037.38 123.25L1035.74 124.89zM1032.43 124.07 a4.13 4.13 0 1 0 8.26 0 a4.13 4.13 0 1 0 -8.26 0zM1063.43 128.39L1065.58 127.5L1058.02 109.24L1055.87 110.13zM1052.81 109.69 a4.13 4.13 0 1 0 8.26 0 a4.13 4.13 0 1 0 -8.26 0zM1080.36 124.56L1082.69 124.56L1082.69 107.05L1080.36 107.05zM1077.4 107.05 a4.13 4.13 0 1 0 8.26 0 a4.13 4.13 0 1 0 -8.26 0zM1097.47 127.5L1099.62 128.39L1107.12 110.3L1104.96 109.41zM1101.91 109.85 a4.13 4.13 0 1 0 8.26 0 a4.13 4.13 0 1 0 -8.26 0zM1112.15 136.76L1113.8 138.41L1126.11 126.1L1124.47 124.45zM1121.16 125.27 a4.13 4.13 0 1 0 8.26 0 a4.13 4.13 0 1 0 -8.26 0zM1122.17 150.94L1123.07 153.09L1133.7 148.69L1132.81 146.53zM1129.12 147.61 a4.13 4.13 0 1 0 8.26 0 a4.13 4.13 0 1 0 -8.26 0zM1037.03 169.04 a44.5 44.5 0 1 0 89 0 a44.5 44.5 0 1 0 -89 0z" fill="#488fdb"></path>
        <path d="M1123.3 184.36 A43.496 43.496 0 0 1 1047.42 197.62M1047.42 197.62 A88.992 88.992 0 0 0 1123.3 184.36" fill="#2672c3" fill-rule="nonzero"></path>
        <path d="M1045.13 171.56 a8.9 8.9 0 1 0 17.8 0 a8.9 8.9 0 1 0 -17.8 0zM1066.29 137.84 a8.9 8.9 0 1 0 17.8 0 a8.9 8.9 0 1 0 -17.8 0zM1077.83 178.47 a8.9 8.9 0 1 0 17.8 0 a8.9 8.9 0 1 0 -17.8 0zM1100.57 136.25 a4 4 0 1 0 8 0 a4 4 0 1 0 -8 0zM1094.2 154.57 a5.78 5.78 0 1 0 11.56 0 a5.78 5.78 0 1 0 -11.56 0zM1104.24 174.27 a7.12 7.12 0 1 0 14.24 0 a7.12 7.12 0 1 0 -14.24 0zM1069.29 196.81 a4.45 4.45 0 1 0 8.9 0 a4.45 4.45 0 1 0 -8.9 0zM1058.3 205.49 a1.78 1.78 0 1 0 3.56 0 a1.78 1.78 0 1 0 -3.56 0zM1093.85 206.98 a3.11 3.11 0 1 0 6.22 0 a3.11 3.11 0 1 0 -6.22 0zM1053.88 191.67 a2.22 2.22 0 1 0 4.44 0 a2.22 2.22 0 1 0 -4.44 0z" fill="#2672c3" fill-rule="nonzero"></path>
        <path d="M1409.84 58.21L1409.84 60.08L1420.4 60.08L1420.4 58.21zM1417.1 59.15 a3.3 3.3 0 1 0 6.6 0 a3.3 3.3 0 1 0 -6.6 0zM1407.49 71.9L1406.77 73.62L1420.18 79.18L1420.89 77.46zM1417.24 78.32 a3.3 3.3 0 1 0 6.6 0 a3.3 3.3 0 1 0 -6.6 0zM1400.08 83.65L1398.76 84.97L1407.16 93.37L1408.48 92.05zM1404.52 92.71 a3.3 3.3 0 1 0 6.6 0 a3.3 3.3 0 1 0 -6.6 0zM1388.73 91.67L1387.01 92.38L1391.39 102.94L1393.11 102.23zM1388.95 102.58 a3.3 3.3 0 1 0 6.6 0 a3.3 3.3 0 1 0 -6.6 0zM1375.19 94.73L1373.32 94.73L1373.32 104.07L1375.19 104.07zM1370.96 104.07 a3.3 3.3 0 1 0 6.6 0 a3.3 3.3 0 1 0 -6.6 0zM1361.5 92.38L1359.78 91.67L1357.78 96.48L1359.51 97.19zM1355.34 96.84 a3.3 3.3 0 1 0 6.6 0 a3.3 3.3 0 1 0 -6.6 0zM1349.75 84.97L1348.43 83.65L1344.99 87.09L1346.31 88.41zM1342.35 87.75 a3.3 3.3 0 1 0 6.6 0 a3.3 3.3 0 1 0 -6.6 0zM1341.74 73.62L1341.02 71.9L1336.24 73.88L1336.95 75.61zM1333.29 74.75 a3.3 3.3 0 1 0 6.6 0 a3.3 3.3 0 1 0 -6.6 0zM1338.67 60.08L1338.67 58.21L1321.2 58.21L1321.2 60.08zM1317.9 59.15 a3.3 3.3 0 1 0 6.6 0 a3.3 3.3 0 1 0 -6.6 0zM1341.02 46.39L1341.74 44.67L1335.44 42.06L1334.72 43.78zM1331.78 42.92 a3.3 3.3 0 1 0 6.6 0 a3.3 3.3 0 1 0 -6.6 0zM1348.43 34.64L1349.75 33.32L1339.9 23.47L1338.58 24.79zM1335.94 24.13 a3.3 3.3 0 1 0 6.6 0 a3.3 3.3 0 1 0 -6.6 0zM1359.78 26.63L1361.5 25.91L1358.07 17.64L1356.35 18.35zM1353.91 17.99 a3.3 3.3 0 1 0 6.6 0 a3.3 3.3 0 1 0 -6.6 0zM1373.32 23.56L1375.19 23.56L1375.19 6.58L1373.32 6.58zM1370.96 6.58 a3.3 3.3 0 1 0 6.6 0 a3.3 3.3 0 1 0 -6.6 0zM1387.01 25.91L1388.73 26.63L1390.78 21.69L1389.06 20.98zM1386.62 21.34 a3.3 3.3 0 1 0 6.6 0 a3.3 3.3 0 1 0 -6.6 0zM1398.76 33.32L1400.08 34.64L1407.03 27.69L1405.71 26.37zM1403.07 27.03 a3.3 3.3 0 1 0 6.6 0 a3.3 3.3 0 1 0 -6.6 0zM1406.77 44.67L1407.49 46.39L1419.74 41.31L1419.03 39.59zM1416.08 40.45 a3.3 3.3 0 1 0 6.6 0 a3.3 3.3 0 1 0 -6.6 0zM1338.66 59.15 a35.6 35.6 0 1 0 71.2 0 a35.6 35.6 0 1 0 -71.2 0z" fill="#488fdb"></path>
        <path d="M1409.7 62.48 A34.5968 34.5968 0 0 1 1353.71 88.21M1353.71 88.21 A71.1936 71.1936 0 0 0 1409.7 62.48" fill="#2672c3" fill-rule="nonzero"></path>
        <path d="M1351.72 83.3 a6.05 6.05 0 1 0 12.1 0 a6.05 6.05 0 1 0 -12.1 0zM1361.14 65.65 a7.12 7.12 0 1 0 14.24 0 a7.12 7.12 0 1 0 -14.24 0zM1399.06 65.37 a4.98 4.98 0 1 0 9.96 0 a4.98 4.98 0 1 0 -9.96 0zM1339.51 64.78 a6.05 6.05 0 1 0 12.1 0 a6.05 6.05 0 1 0 -12.1 0zM1356.08 30.29 a2.85 2.85 0 1 0 5.7 0 a2.85 2.85 0 1 0 -5.7 0zM1373.35 44.41 a7.12 7.12 0 1 0 14.24 0 a7.12 7.12 0 1 0 -14.24 0zM1358.49 46.74 a3.92 3.92 0 1 0 7.84 0 a3.92 3.92 0 1 0 -7.84 0zM1382.36 68.01 a4.27 4.27 0 1 0 8.54 0 a4.27 4.27 0 1 0 -8.54 0zM1376.7 87.23 a6.05 6.05 0 1 0 12.1 0 a6.05 6.05 0 1 0 -12.1 0zM1378.66 28.23 a1.78 1.78 0 1 0 3.56 0 a1.78 1.78 0 1 0 -3.56 0z" fill="#2672c3" fill-rule="nonzero"></path>
        <path d="M124.38 242.47L124.38 244.8L132.36 244.8L132.36 242.47zM128.23 243.64 a4.13 4.13 0 1 0 8.26 0 a4.13 4.13 0 1 0 -8.26 0zM121.44 259.58L120.55 261.73L136.77 268.45L137.66 266.3zM133.08 267.37 a4.13 4.13 0 1 0 8.26 0 a4.13 4.13 0 1 0 -8.26 0zM112.18 274.27L110.53 275.91L116.86 282.24L118.51 280.59zM113.56 281.42 a4.13 4.13 0 1 0 8.26 0 a4.13 4.13 0 1 0 -8.26 0zM98 284.29L95.85 285.18L98.29 291.07L100.44 290.18zM95.24 290.63 a4.13 4.13 0 1 0 8.26 0 a4.13 4.13 0 1 0 -8.26 0zM81.07 288.12L78.74 288.12L78.74 303.49L81.07 303.49zM75.77 303.49 a4.13 4.13 0 1 0 8.26 0 a4.13 4.13 0 1 0 -8.26 0zM63.96 285.18L61.81 284.29L53.55 304.21L55.7 305.11zM50.5 304.66 a4.13 4.13 0 1 0 8.26 0 a4.13 4.13 0 1 0 -8.26 0zM49.27 275.91L47.63 274.27L40.85 281.05L42.49 282.69zM37.54 281.87 a4.13 4.13 0 1 0 8.26 0 a4.13 4.13 0 1 0 -8.26 0zM39.25 261.73L38.36 259.58L28.16 263.81L29.06 265.96zM24.48 264.88 a4.13 4.13 0 1 0 8.26 0 a4.13 4.13 0 1 0 -8.26 0zM35.42 244.8L35.42 242.47L21.14 242.47L21.14 244.8zM17.01 243.64 a4.13 4.13 0 1 0 8.26 0 a4.13 4.13 0 1 0 -8.26 0zM38.36 227.69L39.25 225.54L21.91 218.36L21.02 220.51zM17.34 219.43 a4.13 4.13 0 1 0 8.26 0 a4.13 4.13 0 1 0 -8.26 0zM47.63 213.01L49.27 211.36L33.97 196.05L32.32 197.7zM29.01 196.87 a4.13 4.13 0 1 0 8.26 0 a4.13 4.13 0 1 0 -8.26 0zM61.81 202.99L63.96 202.1L60.26 193.16L58.11 194.05zM55.05 193.61 a4.13 4.13 0 1 0 8.26 0 a4.13 4.13 0 1 0 -8.26 0zM78.74 199.16L81.07 199.16L81.07 190.05L78.74 190.05zM75.77 190.05 a4.13 4.13 0 1 0 8.26 0 a4.13 4.13 0 1 0 -8.26 0zM95.85 202.1L98 202.99L103.6 189.48L101.44 188.59zM98.39 189.03 a4.13 4.13 0 1 0 8.26 0 a4.13 4.13 0 1 0 -8.26 0zM110.53 211.36L112.18 213.01L120.84 204.35L119.19 202.7zM115.89 203.52 a4.13 4.13 0 1 0 8.26 0 a4.13 4.13 0 1 0 -8.26 0zM120.55 225.54L121.44 227.69L133.89 222.54L133 220.38zM129.31 221.46 a4.13 4.13 0 1 0 8.26 0 a4.13 4.13 0 1 0 -8.26 0zM35.4 243.64 a44.5 44.5 0 1 0 89 0 a44.5 44.5 0 1 0 -89 0z" fill="#488fdb"></path>
        <path d="M36.48 253.37 A43.496 43.496 0 0 1 93.1 201.14M93.1 201.14 A88.992 88.992 0 0 0 36.48 253.37" fill="#2672c3" fill-rule="nonzero"></path>
        <path d="M81.3 223.67 a8.9 8.9 0 1 0 17.8 0 a8.9 8.9 0 1 0 -17.8 0zM74 283.1 a4.89 4.89 0 1 0 9.78 0 a4.89 4.89 0 1 0 -9.78 0zM51.44 216.97 a8.9 8.9 0 1 0 17.8 0 a8.9 8.9 0 1 0 -17.8 0zM85.87 269.41 a3.11 3.11 0 1 0 6.22 0 a3.11 3.11 0 1 0 -6.22 0zM87.66 249.7 a8.45 8.45 0 1 0 16.9 0 a8.45 8.45 0 1 0 -16.9 0zM97.43 205.9 a1.78 1.78 0 1 0 3.56 0 a1.78 1.78 0 1 0 -3.56 0zM50.49 256.14 a8.9 8.9 0 1 0 17.8 0 a8.9 8.9 0 1 0 -17.8 0zM74.38 240.45 a3.11 3.11 0 1 0 6.22 0 a3.11 3.11 0 1 0 -6.22 0zM48.4 234.78 a2.22 2.22 0 1 0 4.44 0 a2.22 2.22 0 1 0 -4.44 0zM115.03 227.89 a3.11 3.11 0 1 0 6.22 0 a3.11 3.11 0 1 0 -6.22 0z" fill="#2672c3" fill-rule="nonzero"></path>
        <path d="M911.45 137.11L911.45 138.97L917.37 138.97L917.37 137.11zM914.07 138.04 a3.3 3.3 0 1 0 6.6 0 a3.3 3.3 0 1 0 -6.6 0zM909.1 150.8L908.38 152.52L923.25 158.68L923.96 156.95zM920.31 157.82 a3.3 3.3 0 1 0 6.6 0 a3.3 3.3 0 1 0 -6.6 0zM901.69 162.54L900.37 163.86L912.8 176.29L914.12 174.97zM910.16 175.63 a3.3 3.3 0 1 0 6.6 0 a3.3 3.3 0 1 0 -6.6 0zM890.34 170.56L888.62 171.27L893.09 182.06L894.81 181.35zM890.65 181.71 a3.3 3.3 0 1 0 6.6 0 a3.3 3.3 0 1 0 -6.6 0zM876.8 173.63L874.93 173.63L874.93 182.81L876.8 182.81zM872.57 182.81 a3.3 3.3 0 1 0 6.6 0 a3.3 3.3 0 1 0 -6.6 0zM863.11 171.27L861.39 170.56L859.44 175.25L861.16 175.97zM857 175.61 a3.3 3.3 0 1 0 6.6 0 a3.3 3.3 0 1 0 -6.6 0zM851.36 163.86L850.04 162.54L840.87 171.72L842.18 173.04zM838.22 172.38 a3.3 3.3 0 1 0 6.6 0 a3.3 3.3 0 1 0 -6.6 0zM843.35 152.52L842.63 150.8L835.68 153.68L836.39 155.4zM832.73 154.54 a3.3 3.3 0 1 0 6.6 0 a3.3 3.3 0 1 0 -6.6 0zM840.28 138.97L840.28 137.11L829.61 137.11L829.61 138.97zM826.31 138.04 a3.3 3.3 0 1 0 6.6 0 a3.3 3.3 0 1 0 -6.6 0zM842.63 125.28L843.35 123.56L838.99 121.76L838.27 123.48zM835.33 122.62 a3.3 3.3 0 1 0 6.6 0 a3.3 3.3 0 1 0 -6.6 0zM850.04 113.54L851.36 112.22L843.12 103.98L841.81 105.3zM839.17 104.64 a3.3 3.3 0 1 0 6.6 0 a3.3 3.3 0 1 0 -6.6 0zM861.39 105.52L863.11 104.81L861.42 100.72L859.7 101.44zM857.26 101.08 a3.3 3.3 0 1 0 6.6 0 a3.3 3.3 0 1 0 -6.6 0zM874.93 102.46L876.8 102.46L876.8 88.13L874.93 88.13zM872.57 88.13 a3.3 3.3 0 1 0 6.6 0 a3.3 3.3 0 1 0 -6.6 0zM888.62 104.81L890.34 105.52L894.09 96.47L892.37 95.75zM889.93 96.11 a3.3 3.3 0 1 0 6.6 0 a3.3 3.3 0 1 0 -6.6 0zM900.37 112.22L901.69 113.54L908.32 106.9L907 105.59zM904.36 106.25 a3.3 3.3 0 1 0 6.6 0 a3.3 3.3 0 1 0 -6.6 0zM908.38 123.56L909.1 125.28L920.6 120.52L919.89 118.8zM916.94 119.66 a3.3 3.3 0 1 0 6.6 0 a3.3 3.3 0 1 0 -6.6 0zM840.27 138.04 a35.6 35.6 0 1 0 71.2 0 a35.6 35.6 0 1 0 -71.2 0z" fill="#488fdb"></path>
        <path d="M860.13 106.11 A34.5968 34.5968 0 0 1 911.39 140.31M911.39 140.31 A71.1936 71.1936 0 0 0 860.13 106.11" fill="#2672c3" fill-rule="nonzero"></path>
        <path d="M849.57 125.65 a7.12 7.12 0 1 0 14.24 0 a7.12 7.12 0 1 0 -14.24 0zM878.91 119.12 a7.12 7.12 0 1 0 14.24 0 a7.12 7.12 0 1 0 -14.24 0zM869.53 165.74 a7.12 7.12 0 1 0 14.24 0 a7.12 7.12 0 1 0 -14.24 0zM860.61 152.2 a3.92 3.92 0 1 0 7.84 0 a3.92 3.92 0 1 0 -7.84 0zM901.27 124.86 a3.56 3.56 0 1 0 7.12 0 a3.56 3.56 0 1 0 -7.12 0zM907.55 146.47 a1.42 1.42 0 1 0 2.84 0 a1.42 1.42 0 1 0 -2.84 0zM894.27 152.81 a3.92 3.92 0 1 0 7.84 0 a3.92 3.92 0 1 0 -7.84 0zM856.9 166.66 a2.49 2.49 0 1 0 4.98 0 a2.49 2.49 0 1 0 -4.98 0zM879.47 148.55 a3.92 3.92 0 1 0 7.84 0 a3.92 3.92 0 1 0 -7.84 0zM894.46 137.5 a3.56 3.56 0 1 0 7.12 0 a3.56 3.56 0 1 0 -7.12 0z" fill="#2672c3" fill-rule="nonzero"></path>
        <path d="M321.33 103.39L321.33 106.18L342.16 106.18L342.16 103.39zM337.21 104.79 a4.95 4.95 0 1 0 9.9 0 a4.95 4.95 0 1 0 -9.9 0zM317.81 123.92L316.74 126.5L326.21 130.43L327.28 127.84zM321.79 129.13 a4.95 4.95 0 1 0 9.9 0 a4.95 4.95 0 1 0 -9.9 0zM306.69 141.54L304.71 143.52L319.08 157.89L321.06 155.91zM315.12 156.9 a4.95 4.95 0 1 0 9.9 0 a4.95 4.95 0 1 0 -9.9 0zM289.67 153.56L287.09 154.63L293.49 170.07L296.07 169zM289.83 169.54 a4.95 4.95 0 1 0 9.9 0 a4.95 4.95 0 1 0 -9.9 0zM269.35 158.16L266.56 158.16L266.56 164.82L269.35 164.82zM263.01 164.82 a4.95 4.95 0 1 0 9.9 0 a4.95 4.95 0 1 0 -9.9 0zM248.82 154.63L246.24 153.56L240.12 168.35L242.7 169.42zM236.46 168.88 a4.95 4.95 0 1 0 9.9 0 a4.95 4.95 0 1 0 -9.9 0zM231.2 143.52L229.23 141.54L213.29 157.47L215.27 159.45zM209.33 158.46 a4.95 4.95 0 1 0 9.9 0 a4.95 4.95 0 1 0 -9.9 0zM219.18 126.5L218.11 123.92L201.39 130.85L202.46 133.43zM196.97 132.14 a4.95 4.95 0 1 0 9.9 0 a4.95 4.95 0 1 0 -9.9 0zM214.58 106.18L214.58 103.39L203.76 103.39L203.76 106.18zM198.81 104.79 a4.95 4.95 0 1 0 9.9 0 a4.95 4.95 0 1 0 -9.9 0zM218.11 85.65L219.18 83.07L207.55 78.25L206.48 80.83zM202.06 79.54 a4.95 4.95 0 1 0 9.9 0 a4.95 4.95 0 1 0 -9.9 0zM229.23 68.03L231.2 66.05L218.43 53.28L216.45 55.26zM212.49 54.27 a4.95 4.95 0 1 0 9.9 0 a4.95 4.95 0 1 0 -9.9 0zM246.24 56.01L248.82 54.94L244.34 44.11L241.75 45.18zM238.1 44.64 a4.95 4.95 0 1 0 9.9 0 a4.95 4.95 0 1 0 -9.9 0zM266.56 51.41L269.35 51.41L269.35 37.56L266.56 37.56zM263.01 37.56 a4.95 4.95 0 1 0 9.9 0 a4.95 4.95 0 1 0 -9.9 0zM287.09 54.94L289.67 56.01L292.49 49.22L289.9 48.15zM286.25 48.68 a4.95 4.95 0 1 0 9.9 0 a4.95 4.95 0 1 0 -9.9 0zM304.71 66.05L306.69 68.03L311.46 63.26L309.48 61.28zM305.52 62.27 a4.95 4.95 0 1 0 9.9 0 a4.95 4.95 0 1 0 -9.9 0zM316.74 83.07L317.81 85.65L337.44 77.52L336.37 74.94zM331.95 76.23 a4.95 4.95 0 1 0 9.9 0 a4.95 4.95 0 1 0 -9.9 0zM214.56 104.79 a53.4 53.4 0 1 0 106.8 0 a53.4 53.4 0 1 0 -106.8 0z" fill="#488fdb"></path>
        <path d="M216.17 117.8 A52.3952 52.3952 0 0 1 282.47 53.4M282.47 53.4 A106.7904 106.7904 0 0 0 216.17 117.8" fill="#2672c3" fill-rule="nonzero"></path>
        <path d="M225.35 99.73 a10.68 10.68 0 1 0 21.36 0 a10.68 10.68 0 1 0 -21.36 0zM288.16 103.01 a10.68 10.68 0 1 0 21.36 0 a10.68 10.68 0 1 0 -21.36 0zM297.73 143.56 a2.67 2.67 0 1 0 5.34 0 a2.67 2.67 0 1 0 -5.34 0zM257.87 140.22 a10.68 10.68 0 1 0 21.36 0 a10.68 10.68 0 1 0 -21.36 0zM237.98 130.42 a5.34 5.34 0 1 0 10.68 0 a5.34 5.34 0 1 0 -10.68 0zM240.13 71.16 a10.15 10.15 0 1 0 20.3 0 a10.15 10.15 0 1 0 -20.3 0zM308.58 126.56 a3.74 3.74 0 1 0 7.48 0 a3.74 3.74 0 1 0 -7.48 0zM283.74 59.95 a4.27 4.27 0 1 0 8.54 0 a4.27 4.27 0 1 0 -8.54 0zM262.15 102.43 a7.48 7.48 0 1 0 14.96 0 a7.48 7.48 0 1 0 -14.96 0zM286.89 81.59 a2.14 2.14 0 1 0 4.28 0 a2.14 2.14 0 1 0 -4.28 0z" fill="#2672c3" fill-rule="nonzero"></path>
        <path d="M966.8 346.63L966.8 348.96L972.92 348.96L972.92 346.63zM968.79 347.8 a4.13 4.13 0 1 0 8.26 0 a4.13 4.13 0 1 0 -8.26 0zM963.86 363.74L962.97 365.9L983.22 374.28L984.11 372.13zM979.54 373.21 a4.13 4.13 0 1 0 8.26 0 a4.13 4.13 0 1 0 -8.26 0zM954.6 378.43L952.95 380.07L962.77 389.9L964.42 388.25zM959.47 389.07 a4.13 4.13 0 1 0 8.26 0 a4.13 4.13 0 1 0 -8.26 0zM940.42 388.45L938.27 389.34L943.68 402.4L945.83 401.51zM940.62 401.96 a4.13 4.13 0 1 0 8.26 0 a4.13 4.13 0 1 0 -8.26 0zM923.49 392.28L921.16 392.28L921.16 404.84L923.49 404.84zM918.19 404.84 a4.13 4.13 0 1 0 8.26 0 a4.13 4.13 0 1 0 -8.26 0zM906.38 389.34L904.22 388.45L900.97 396.29L903.13 397.18zM897.92 396.74 a4.13 4.13 0 1 0 8.26 0 a4.13 4.13 0 1 0 -8.26 0zM891.69 380.07L890.05 378.43L882.39 386.08L884.04 387.73zM879.09 386.9 a4.13 4.13 0 1 0 8.26 0 a4.13 4.13 0 1 0 -8.26 0zM881.67 365.9L880.78 363.74L874.66 366.28L875.56 368.43zM870.98 367.35 a4.13 4.13 0 1 0 8.26 0 a4.13 4.13 0 1 0 -8.26 0zM877.84 348.96L877.84 346.63L871.91 346.63L871.91 348.96zM867.78 347.8 a4.13 4.13 0 1 0 8.26 0 a4.13 4.13 0 1 0 -8.26 0zM880.78 331.85L881.67 329.7L869.91 324.83L869.02 326.98zM865.34 325.9 a4.13 4.13 0 1 0 8.26 0 a4.13 4.13 0 1 0 -8.26 0zM890.05 317.17L891.69 315.52L884.73 308.56L883.09 310.21zM879.78 309.39 a4.13 4.13 0 1 0 8.26 0 a4.13 4.13 0 1 0 -8.26 0zM904.22 307.15L906.38 306.26L899.56 289.8L897.41 290.69zM894.35 290.25 a4.13 4.13 0 1 0 8.26 0 a4.13 4.13 0 1 0 -8.26 0zM921.16 303.32L923.49 303.32L923.49 293.26L921.16 293.26zM918.19 293.26 a4.13 4.13 0 1 0 8.26 0 a4.13 4.13 0 1 0 -8.26 0zM938.27 306.26L940.42 307.15L943.08 300.74L940.92 299.85zM937.87 300.29 a4.13 4.13 0 1 0 8.26 0 a4.13 4.13 0 1 0 -8.26 0zM952.95 315.52L954.6 317.17L969.91 301.85L968.27 300.21zM964.96 301.03 a4.13 4.13 0 1 0 8.26 0 a4.13 4.13 0 1 0 -8.26 0zM962.97 329.7L963.86 331.85L974.07 327.62L973.18 325.47zM969.5 326.55 a4.13 4.13 0 1 0 8.26 0 a4.13 4.13 0 1 0 -8.26 0zM877.82 347.8 a44.5 44.5 0 1 0 89 0 a44.5 44.5 0 1 0 -89 0z" fill="#488fdb"></path>
        <path d="M888.53 376.75 A43.496 43.496 0 0 1 914.05 304.08M914.05 304.08 A88.992 88.992 0 0 0 888.53 376.75" fill="#2672c3" fill-rule="nonzero"></path>
        <path d="M925.52 326.5 a8.9 8.9 0 1 0 17.8 0 a8.9 8.9 0 1 0 -17.8 0zM939.08 347.89 a5.78 5.78 0 1 0 11.56 0 a5.78 5.78 0 1 0 -11.56 0zM939.8 370.79 a8.45 8.45 0 1 0 16.9 0 a8.45 8.45 0 1 0 -16.9 0zM887.42 342.02 a8.9 8.9 0 1 0 17.8 0 a8.9 8.9 0 1 0 -17.8 0zM958.34 328.43 a1.78 1.78 0 1 0 3.56 0 a1.78 1.78 0 1 0 -3.56 0zM902.57 382.84 a6.67 6.67 0 1 0 13.34 0 a6.67 6.67 0 1 0 -13.34 0zM900.49 362.54 a4.45 4.45 0 1 0 8.9 0 a4.45 4.45 0 1 0 -8.9 0zM911.5 323.24 a2.67 2.67 0 1 0 5.34 0 a2.67 2.67 0 1 0 -5.34 0zM960.45 345.81 a3.11 3.11 0 1 0 6.22 0 a3.11 3.11 0 1 0 -6.22 0zM885.94 361.16 a2.67 2.67 0 1 0 5.34 0 a2.67 2.67 0 1 0 -5.34 0z" fill="#2672c3" fill-rule="nonzero"></path>
        <path d="M730.21 84.55L730.21 86.42L745.74 86.42L745.74 84.55zM742.44 85.49 a3.3 3.3 0 1 0 6.6 0 a3.3 3.3 0 1 0 -6.6 0zM727.86 98.24L727.14 99.97L737.15 104.11L737.86 102.39zM734.21 103.25 a3.3 3.3 0 1 0 6.6 0 a3.3 3.3 0 1 0 -6.6 0zM720.45 109.99L719.13 111.31L729.49 121.67L730.81 120.35zM726.85 121.01 a3.3 3.3 0 1 0 6.6 0 a3.3 3.3 0 1 0 -6.6 0zM709.1 118.01L707.38 118.72L713.2 132.76L714.92 132.05zM710.76 132.41 a3.3 3.3 0 1 0 6.6 0 a3.3 3.3 0 1 0 -6.6 0zM695.56 121.07L693.69 121.07L693.69 127.81L695.56 127.81zM691.33 127.81 a3.3 3.3 0 1 0 6.6 0 a3.3 3.3 0 1 0 -6.6 0zM681.87 118.72L680.15 118.01L676.17 127.61L677.89 128.32zM673.73 127.96 a3.3 3.3 0 1 0 6.6 0 a3.3 3.3 0 1 0 -6.6 0zM670.12 111.31L668.8 109.99L661.93 116.86L663.25 118.18zM659.29 117.52 a3.3 3.3 0 1 0 6.6 0 a3.3 3.3 0 1 0 -6.6 0zM662.11 99.97L661.39 98.24L653.06 101.7L653.77 103.42zM650.12 102.56 a3.3 3.3 0 1 0 6.6 0 a3.3 3.3 0 1 0 -6.6 0zM659.04 86.42L659.04 84.55L647.74 84.55L647.74 86.42zM644.44 85.49 a3.3 3.3 0 1 0 6.6 0 a3.3 3.3 0 1 0 -6.6 0zM661.39 72.73L662.11 71.01L651.83 66.75L651.12 68.47zM648.18 67.61 a3.3 3.3 0 1 0 6.6 0 a3.3 3.3 0 1 0 -6.6 0zM668.8 60.98L670.12 59.67L659.8 49.34L658.48 50.66zM655.84 50 a3.3 3.3 0 1 0 6.6 0 a3.3 3.3 0 1 0 -6.6 0zM680.15 52.97L681.87 52.25L677.81 42.46L676.09 43.17zM673.65 42.82 a3.3 3.3 0 1 0 6.6 0 a3.3 3.3 0 1 0 -6.6 0zM693.69 49.9L695.56 49.9L695.56 35.19L693.69 35.19zM691.33 35.19 a3.3 3.3 0 1 0 6.6 0 a3.3 3.3 0 1 0 -6.6 0zM707.38 52.25L709.1 52.97L712.03 45.9L710.31 45.19zM707.87 45.54 a3.3 3.3 0 1 0 6.6 0 a3.3 3.3 0 1 0 -6.6 0zM719.13 59.67L720.45 60.98L727.15 54.28L725.83 52.96zM723.19 53.62 a3.3 3.3 0 1 0 6.6 0 a3.3 3.3 0 1 0 -6.6 0zM727.14 71.01L727.86 72.73L741.04 67.27L740.33 65.55zM737.39 66.41 a3.3 3.3 0 1 0 6.6 0 a3.3 3.3 0 1 0 -6.6 0zM659.03 85.49 a35.6 35.6 0 1 0 71.2 0 a35.6 35.6 0 1 0 -71.2 0z" fill="#488fdb"></path>
        <path d="M672.1 57.92 A34.5968 34.5968 0 0 1 729.75 79.69M729.75 79.69 A71.1936 71.1936 0 0 0 672.1 57.92" fill="#2672c3" fill-rule="nonzero"></path>
        <path d="M683.16 79.91 a7.12 7.12 0 1 0 14.24 0 a7.12 7.12 0 1 0 -14.24 0zM689.45 99.29 a5.34 5.34 0 1 0 10.68 0 a5.34 5.34 0 1 0 -10.68 0zM661.59 85.23 a7.12 7.12 0 1 0 14.24 0 a7.12 7.12 0 1 0 -14.24 0zM704.74 81.76 a1.78 1.78 0 1 0 3.56 0 a1.78 1.78 0 1 0 -3.56 0zM685.12 58.27 a7.12 7.12 0 1 0 14.24 0 a7.12 7.12 0 1 0 -14.24 0zM682.43 110.53 a2.49 2.49 0 1 0 4.98 0 a2.49 2.49 0 1 0 -4.98 0zM722.72 78.21 a3.2 3.2 0 1 0 6.4 0 a3.2 3.2 0 1 0 -6.4 0zM717.28 88.44 a1.78 1.78 0 1 0 3.56 0 a1.78 1.78 0 1 0 -3.56 0zM664.3 101.18 a1.78 1.78 0 1 0 3.56 0 a1.78 1.78 0 1 0 -3.56 0zM707.37 68.21 a5.7 5.7 0 1 0 11.4 0 a5.7 5.7 0 1 0 -11.4 0z" fill="#2672c3" fill-rule="nonzero"></path>
        <path d="M326.06 350.29L326.06 352.15L331.53 352.15L331.53 350.29zM328.23 351.22 a3.3 3.3 0 1 0 6.6 0 a3.3 3.3 0 1 0 -6.6 0zM323.7 363.97L322.99 365.7L329.47 368.38L330.18 366.66zM326.52 367.52 a3.3 3.3 0 1 0 6.6 0 a3.3 3.3 0 1 0 -6.6 0zM316.29 375.72L314.97 377.04L320.83 382.89L322.15 381.58zM318.19 382.23 a3.3 3.3 0 1 0 6.6 0 a3.3 3.3 0 1 0 -6.6 0zM304.95 383.74L303.23 384.45L307.49 394.75L309.22 394.04zM305.05 394.39 a3.3 3.3 0 1 0 6.6 0 a3.3 3.3 0 1 0 -6.6 0zM291.4 386.8L289.54 386.8L289.54 401.81L291.4 401.81zM287.17 401.81 a3.3 3.3 0 1 0 6.6 0 a3.3 3.3 0 1 0 -6.6 0zM277.71 384.45L275.99 383.74L270.99 395.82L272.71 396.53zM268.55 396.18 a3.3 3.3 0 1 0 6.6 0 a3.3 3.3 0 1 0 -6.6 0zM265.97 377.04L264.65 375.72L255.42 384.95L256.74 386.27zM252.78 385.61 a3.3 3.3 0 1 0 6.6 0 a3.3 3.3 0 1 0 -6.6 0zM257.95 365.7L257.24 363.97L242.73 369.98L243.45 371.7zM239.79 370.84 a3.3 3.3 0 1 0 6.6 0 a3.3 3.3 0 1 0 -6.6 0zM254.89 352.15L254.89 350.29L247.05 350.29L247.05 352.15zM243.75 351.22 a3.3 3.3 0 1 0 6.6 0 a3.3 3.3 0 1 0 -6.6 0zM257.24 338.46L257.95 336.74L250.45 333.63L249.74 335.35zM246.79 334.49 a3.3 3.3 0 1 0 6.6 0 a3.3 3.3 0 1 0 -6.6 0zM264.65 326.71L265.97 325.4L258.93 318.36L257.61 319.68zM254.97 319.02 a3.3 3.3 0 1 0 6.6 0 a3.3 3.3 0 1 0 -6.6 0zM275.99 318.7L277.71 317.98L272.37 305.09L270.65 305.8zM268.21 305.44 a3.3 3.3 0 1 0 6.6 0 a3.3 3.3 0 1 0 -6.6 0zM289.54 315.63L291.4 315.63L291.4 301.86L289.54 301.86zM287.17 301.86 a3.3 3.3 0 1 0 6.6 0 a3.3 3.3 0 1 0 -6.6 0zM303.23 317.98L304.95 318.7L309.28 308.23L307.56 307.52zM305.12 307.87 a3.3 3.3 0 1 0 6.6 0 a3.3 3.3 0 1 0 -6.6 0zM314.97 325.4L316.29 326.71L319.64 323.37L318.32 322.05zM315.68 322.71 a3.3 3.3 0 1 0 6.6 0 a3.3 3.3 0 1 0 -6.6 0zM322.99 336.74L323.7 338.46L332.26 334.92L331.54 333.2zM328.6 334.06 a3.3 3.3 0 1 0 6.6 0 a3.3 3.3 0 1 0 -6.6 0zM254.87 351.22 a35.6 35.6 0 1 0 71.2 0 a35.6 35.6 0 1 0 -71.2 0z" fill="#488fdb"></path>
        <path d="M259.34 333.95 A34.5968 34.5968 0 0 1 320.95 332.83M320.95 332.83 A71.1936 71.1936 0 0 0 259.34 333.95" fill="#2672c3" fill-rule="nonzero"></path>
        <path d="M293.65 368.73 a7.12 7.12 0 1 0 14.24 0 a7.12 7.12 0 1 0 -14.24 0zM268.59 360.77 a7.12 7.12 0 1 0 14.24 0 a7.12 7.12 0 1 0 -14.24 0zM293.8 335.71 a7.12 7.12 0 1 0 14.24 0 a7.12 7.12 0 1 0 -14.24 0zM315.82 361.27 a4.27 4.27 0 1 0 8.54 0 a4.27 4.27 0 1 0 -8.54 0zM283.33 378.98 a3.2 3.2 0 1 0 6.4 0 a3.2 3.2 0 1 0 -6.4 0zM271.49 329.39 a7.12 7.12 0 1 0 14.24 0 a7.12 7.12 0 1 0 -14.24 0zM255.19 355.03 a1.78 1.78 0 1 0 3.56 0 a1.78 1.78 0 1 0 -3.56 0zM312.5 345.56 a3.56 3.56 0 1 0 7.12 0 a3.56 3.56 0 1 0 -7.12 0zM289.48 349.87 a2.49 2.49 0 1 0 4.98 0 a2.49 2.49 0 1 0 -4.98 0zM260.25 333.24 a2.14 2.14 0 1 0 4.28 0 a2.14 2.14 0 1 0 -4.28 0z" fill="#2672c3" fill-rule="nonzero"></path>
    </g>
    <defs>
        <mask id="SvgjsMask2020">
            <rect width="1440" height="560" fill="#ffffff"></rect>
        </mask>
        <radialGradient cx="0%" cy="0%" r="1545.06" gradientUnits="userSpaceOnUse" id="SvgjsRadialGradient2021">
            <stop stop-color="rgba(164, 96, 105, 1)" offset="0"></stop>
            <stop stop-color="rgba(255, 255, 255, 1)" offset="0.98"></stop>
        </radialGradient>
    </defs>
</svg>